<?xml version="1.0" encoding="utf-8"?>
<!-- Generator: Adobe Illustrator 19.1.1, SVG Export Plug-In . SVG Version: 6.00 Build 0)  -->
<svg version="1.1" id="Layer_1" xmlns="http://www.w3.org/2000/svg" xmlns:xlink="http://www.w3.org/1999/xlink" x="0px" y="0px"
	 viewBox="0 0 950.4 305.7" style="enable-background:new 0 0 950.4 305.7;" xml:space="preserve">
<g>
	<path d="M112.3,0l8.4,70.3l1.1,2.4l-35.6,0.2l2.2-2.4l0.6-0.9L88,62H59.6L41.3,88l-0.1,4.8H21.5l6.3-4.9l53.3-75.3l20-8.1L112.3,0z
		 M84.1,27L64.8,54.5h22.1l0.5-0.2l-2.9-26.2L84.1,27z"/>
	<path d="M163.2,9h53.3c4.4,0.1,7.9,0.6,10.4,1.7c2.5,1,4,4.1,4.6,9.2l-3.4,15.5c-0.9,2.8-2,4.9-3.4,6.2c1.3,1.3,1.6,3.4,0.8,6.1
		l-3.3,15.8c-1.8,5-5.9,7.9-12.2,8.6h-59.5c1.2-1.2,2.1-2.9,2.7-5.1L164.4,14C164.4,12.2,164,10.5,163.2,9z M183.2,45.5l-4,19.2
		h11.7l1.5-0.2c0.3-0.1,0.6-0.1,0.9-0.2c0.3-0.1,0.6-0.2,0.8-0.3c1.4-0.4,2.5-2,3.1-4.6l2.2-10.4c-0.3-1.1-0.6-1.9-1-2.3
		c-0.7-0.6-1.6-1-2.6-1.3H183.2z M190.7,16.3l-1.4,0.2l-4.2,20.1l10.6-0.1c4.4-1,7.1-3.4,8-7l1.4-6.4l0.3-2c0-0.6-0.1-1.2-0.4-1.9
		l-1.2-1.5c-1.7-0.8-3.8-1.2-6.5-1.2l-1.1-0.2H190.7z"/>
	<path d="M272.2,9.1L327.8,9c6.3,1.2,7.4,9.5,3.4,25.1h-26.1c1.7-7.6,0.9-11.4-2.5-11.3c-1.7,0.1-3.7,0.1-6,0c-2.3,0-5-0.1-8-0.1
		l-1.7,1.3l-6.3,29.7c-0.3,1.6-0.4,3.2-0.2,4.7l2.1,1.5H296c2.2-0.7,4-5.2,5.2-13.4h27.4c-2.4,16.5-7.8,25.1-16.3,25.8h-38.1
		c-12.1,0.3-19.3-1.5-21.3-5.4c-0.3-1.4-0.5-3.6-0.6-6.5l8.3-38.8c0.4-1.7,1.2-3.6,2.5-5.8C264.7,12.7,267.8,10.5,272.2,9.1z"/>
	<path d="M377.5,9.8h43.7l1.7,0.4l2.9,1c5.1,3,8,7.9,8.6,14.6c0.1,0.8-0.1,2-0.5,3.7l-6,28.4c-0.2,0.9-0.8,2.1-1.6,3.9l-0.2,0.6
		c-1.4,2.3-3.3,4.4-5.8,6.5c-2.4,1.6-5.1,2.6-8.2,2.9l-0.5,0.2l-58.7,0.2l2.5-4.4L366.3,17l0.3-1.1l-0.4-4.1l-0.6-2.1L377.5,9.8z
		 M390.1,22.3l-7.8,36.5h10.9l4-0.7c0.7-0.4,1.5-0.8,2.2-1.4l0.5-0.4c0.6-0.8,1.2-1.8,1.7-2.9l4.7-22.2l0.2-1.7
		c-0.1-0.1-0.1-0.4,0-0.7c0-1.1-0.4-2.4-1.3-4C402.2,22.4,397.1,21.5,390.1,22.3z"/>
	<path d="M472.2,11.8c1.4-0.9,3-1.6,4.8-2.2h52.1c2.3,0.7,4.1,2.3,5.4,4.7l1.2,4l-0.1,2.1l-5.8,27.4l-2.4,0.1h-39.1h-2.8
		c-1.8,6.1-1.5,9.9,0.7,11.4c2.3,1.5,7.8,2.2,16.5,2c8.6-0.2,16.8-1.6,24.7-4.1l-4.8,15L462.8,72c-4.6-1.7-6.7-4.2-6.3-7.5l0.1-4.2
		l8.5-40c0.3-0.9,0.8-1.8,1.3-2.7c0.6-1,1.2-1.9,2-3C469.5,13.6,470.8,12.6,472.2,11.8z M490.4,25.8l-2.1,9.3l21.9-0.1l1.9-9.3
		c0.1-3.4-3.3-5-10.2-4.7C494.8,20.8,491,22.4,490.4,25.8z"/>
	<path d="M580,8.9h55.8l-2.3,10.8c-21.9-2.5-33.8,0-35.6,7.5l-2.8,13l32.2-0.1l-2.5,11.5l-32.1-0.1l-3.9,18.4l0.8,2.2h-34.2l1.6-1.9
		l4-18.7l2.4-10.9l5.2-24.3C570.2,11.9,574,9.4,580,8.9z"/>
	<path d="M679,9.2h54.4l-3,14.4l-2-2.2h-30.6c-0.5-0.1-1-0.1-1.4,0c-0.5,0-0.9,0.1-1.4,0.2c-0.8-0.1-1.6-0.1-2.4,0.2H692l-1,0.6
		c-0.7,0.7-1.4,1.9-2,3.4L683.2,53c-0.2,1.4-0.2,2.7,0.1,4c0.4,0.8,1.1,1.5,2,2l0.4,0.2c1.4,0.6,3.6,0.8,6.7,0.6h5.5l0.6-0.3h3.4
		l1.9-0.2l1.7-7.5v-0.9h-7.4l-3.5,1.5l2.8-12.8l29.2,0.1c0.9-0.2,2-0.1,3.3,0.3c1.3,0.9,2.3,2.4,2.9,4.3l0.1,2l-0.1,1.5l-5.1,24
		h-64.9c-1-0.2-2-0.7-3.1-1.3l-0.9-0.4l-0.6-0.7l-0.4-0.2c-1.3-1.8-2.1-4-2.4-6.8l0.4-4c-0.1-0.9,0.1-1.9,0.5-3.2l7.1-33.1l0.6-1.3
		l0.6-1.5l0.8-1.3c0.3-0.9,0.7-1.7,1.3-2.4C669.9,12,674.1,9.9,679,9.2z"/>
	<path d="M770.8,9.5h32.1c-1.2,1-2.3,2.5-3.4,4.4l-4.3,20.3l-0.1,1.3h17.6c0.3-0.6,0.5-1.2,0.7-1.9c0.2-0.7,0.3-1.5,0.4-2.3
		l3.8-17.6c-0.2-1.7-0.9-3.1-2.2-4.2h33.4c-1.8,1.3-3.2,2.9-4.2,5l-11.2,52.7c0.1,0.9,0.2,1.7,0.5,2.4c0.2,0.8,0.6,1.5,1,2.3h-32.1
		c1.3-1.1,2.4-2.5,3.4-4.2l3.7-17.5c0.1-0.4,0.2-0.9,0.4-1.4c0.1-0.5,0.2-1,0.1-1.6h-17.6c-0.5,1.1-0.9,2.5-1.1,4.2l-3.4,16
		c0.2,1.5,0.8,2.9,1.9,4.4h-33c1.5-1.2,2.9-2.8,4.1-5l11.1-52.7C772.2,12.6,771.8,11,770.8,9.5z"/>
	<path d="M877.2,9.9h33c-0.7,0.6-1.3,1.2-1.9,2c-0.6,0.8-1.2,1.6-1.7,2.6l-11.3,53.2c0.2,1.3,0.7,2.5,1.5,3.8l0.1,0.4h-32.8
		c1.2-1.2,2.4-2.7,3.5-4.6l11.3-53.1C878.7,12.8,878.1,11.4,877.2,9.9z"/>
	<path d="M70.1,182.8H42.5l2.3-10.8c15.5,2.5,24.1,0,25.8-7.5l8.8-41.6l-1.4-2.9H111l-2.8,2.7l-10.6,49.6c-0.2,1.2-0.8,2.5-1.9,3.9
		C89.7,180.6,81.1,182.8,70.1,182.8z"/>
	<path d="M139.1,120.4h30.8l-5.7,26.9l0.4,0.6c19.2-15.4,29-24.4,29.4-27h31.3c-2.9,1.5-5.3,3.1-7.2,4.6l-31.6,28.2l15.5,23.5l1,1.2
		l4.3,3.8h-31.8c0.6-1.1,0.6-2.4-0.2-3.8L162,157.5l-3.3,15.6l-0.1,2.7l0.4,4.6l0.5,1.7h-31.8l2.9-5.8l0.7-1.5l10-47.7l0.1-4.3
		l-0.8-1.6L139.1,120.4z"/>
	<path d="M242.5,175.9l11.3-53.2l-1.7-2.7h31.6L281,123l-8.7,41.4c-0.4,9,9.5,10.8,29.6,5.6l-2.8,12.6h-52.6
		C242.9,181.9,241.6,179.7,242.5,175.9z"/>
	<path d="M329.2,202.3h-18.9c0.3-0.3,0.6-0.6,1-0.9c0.4-0.3,0.8-0.6,1.3-0.9l6.1-5.5l40-64.9l29-8.6h0.6c-0.2,1-0.2,1.7-0.1,2.1
		l-0.1,0.6l-2.1,47.1l0.2,0.4l30.4-52.6l31-10.1l1.3-0.2c0.1,0.7-1.9,21.4-5.8,62l-0.1,1.3l0.1,0.6l-0.3,1.2l-0.1,2l0.5,2.9
		c0.4,1.7,1,3,1.8,4.1c0.1,0.1,0.2,0.4,0.2,0.7h-37.4c0.9-0.8,1.7-1.8,2.5-3l0.2-0.4l8.8-35.8l-0.1-0.6l-27,39l-0.3,0.6h-35.3
		l4-32.9l-29.8,44.3l-0.9,1.7C329.2,198.2,328.9,200.2,329.2,202.3z"/>
	<path d="M493.9,122.1c-0.3-0.7-0.7-1.3-1.1-2h32.4l28.4,34l6.3-29.8c-0.1-1.5-0.6-2.9-1.7-4c0.5-0.2,1.5-0.3,3-0.2H593
		c-1.5,1.3-2.8,2.8-3.9,4.6l-11.2,53.2c0.1,1.4,0.6,2.9,1.7,4.4h-34.7c2.7-2.3,4.2-5.3,4.6-9l-27.7-33c0-0.2-0.2-0.4-0.5-0.6
		l-1.2-1.5l-0.9-0.9l-0.6-0.7l-8.7,41.1c0.1,1.3,0.6,2.7,1.5,4.1l0.1,0.5h-32c1.3-1,2.5-2.4,3.5-4.2l11.5-53.9
		C494.4,123.4,494.2,122.8,493.9,122.1z"/>
	<path d="M637.4,119.9h52.3l4.1,1.2l1.3,0.8c0.7,0.7,1.3,1.5,1.8,2.4c0.5,1,0.9,2,1.2,3.2l0.1,3.9l-0.1,1.1l-6.9,32.4
		c-0.1,1.2-0.4,2.4-0.9,3.8c-0.2,0.8-0.6,1.7-1.1,2.9l-0.1,0.6c-0.2,0.5-0.5,1-0.8,1.6c-0.3,0.6-0.7,1.2-1.2,1.8l-0.6,0.8
		c-0.7,0.7-1.4,1.3-2.1,2s-1.6,1.3-2.7,2c-1.8,0.9-3.9,1.5-6.3,1.7h-52.5l-0.8-0.2c-2.3-0.7-4.3-2.2-6-4.4c-0.7-1.5-1-3.4-1-5.6
		l-0.1-0.4c0-1,0.2-2.8,0.7-5.2l6.8-32l1.7-4.3c0.8-1.9,2-3.8,3.7-5.7C630.8,121.9,633.9,120.4,637.4,119.9z M654.2,131.9
		c-1.3,0.4-2.5,1.3-3.8,2.7l-0.7,1.9l-5.9,28c-0.1,0.5-0.2,1-0.2,1.5c0,0.5-0.1,1.1-0.1,1.8c0.2,0.7,0.7,1.3,1.3,1.9H660
		c1.3-0.4,2.3-1.2,2.9-2.6l0.4-1.1l6.3-29.6c0.9-3.3-0.3-4.8-3.8-4.5h-4.2H654.2z"/>
	<path d="M719.1,180.6l2-2.5l10.8-51l-0.5-7.5H793c1.7,0.2,3.1,0.7,4.1,1.5c0.7,0.8,1.3,1.6,1.8,2.3c0.5,0.7,0.9,1.5,1.2,2.3
		l0.1,1.5l-6.4,30.2l-0.8,2.1l-1.1,3.2c-1.6,2.5-3.5,4.5-5.6,6.1l-0.8,0.4c-0.8,0.3-1.5,0.5-2.1,0.7c-0.6,0.2-1.2,0.3-1.7,0.4
		c-2.1,0.4-3.8,0.6-5.2,0.6l-24.3,0.1c-2.6-0.8-4-2.5-4-5.2l-2.5,12.3l1.5,4.1h-29.6L719.1,180.6z M766.3,160.3
		c1.3-0.9,2.1-1.8,2.6-2.6l5.2-25.7c0.1-1.3-1.4-2.3-4.5-3.1c-3.1-0.9-6.8-0.3-11.2,1.6l-1.4,1.4l-5.5,26c0.2,1,0.6,1.8,1.4,2.4
		H766.3z"/>
	<path d="M845.1,119.9h52.3l4.1,1.2l1.2,0.8c1.4,1.3,2.4,3.2,3,5.6l0.2,3.9l-0.1,1.1l-6.9,32.4c-0.1,1.2-0.4,2.4-0.9,3.8
		c-0.2,0.8-0.6,1.7-1.1,2.9l-0.1,0.6c-0.2,0.5-0.5,1-0.8,1.6c-0.3,0.6-0.7,1.2-1.2,1.8l-0.6,0.8c-1.3,1.5-2.9,2.9-4.7,4
		c-0.9,0.4-1.9,0.8-3,1.1c-1.1,0.3-2.3,0.5-3.6,0.6l-14.5-0.1l-1.7,8.3l-22,0.1l1.7-8.4l-16.6-0.1c-2.3-0.7-4.2-2.2-5.9-4.4
		c-0.7-1.5-1.1-3.4-1.1-5.6l-0.1-0.4c0.1-1.3,0.3-3.1,0.8-5.2l6.8-32l1.6-4.3c0.9-1.9,2.2-3.8,3.8-5.7
		C838.5,121.9,841.7,120.4,845.1,119.9z M861.9,131.9c-1.4,0.4-2.6,1.3-3.8,2.7l-0.8,1.9l-5.9,28c-0.1,0.5-0.2,1-0.3,1.6
		c-0.1,0.6-0.1,1.1,0,1.7c0.2,0.7,0.7,1.3,1.3,1.9h15.3c1.3-0.4,2.2-1.2,2.9-2.6l0.4-1.1l6.3-29.6c0.9-3.3-0.4-4.8-3.9-4.5h-4.2
		H861.9z"/>
	<path d="M1.7,291l2-2.5l10.8-51l-0.4-7.5h61.5c1.7,0.2,3.1,0.7,4.1,1.5c0.7,0.8,1.3,1.6,1.8,2.3c0.5,0.8,0.8,1.5,1.1,2.3l0.1,1.5
		l-6.4,30.2l-0.7,3l-1.2,2.3c-1.6,2.5-3.5,4.5-5.6,6.1l7.4,13.3l-29-0.1l2.9-3.4l-3.7-7.5l-11.8-0.1h-5l-1.6,7.2l1.5,4.1H0L1.7,291z
		 M47.7,270.7c1.3-0.7,2.1-1.6,2.6-2.6l5.3-25.7c0.1-1.2-1.5-2.2-4.7-3c-3.3-0.9-6.9-0.4-11,1.5l-1.5,1.5l-5.6,26
		c0.2,1,0.7,1.7,1.5,2.3H47.7z"/>
	<path d="M128.3,230.5h49.2l2.7,0.4c6.3,4.4,7.7,11.3,4.2,20.7h-24.8c1.9-3.6,1.5-6.5-1.2-8.9h-12.1c-1,0.5-2,1.2-2.9,2.2l-0.9,2.1
		l-1.6,7.5l0.8,1.4c3.9,0.7,11.7,1,23.6,0.8c11.9-0.2,17.2,3.1,15.9,9.8l-2.1,9.7l-1.3,4.7L177,283l-2,4c-1.1,1.3-2.7,2.9-4.9,4.6
		l-4.7,1.5h-57.1l2.2-19.3c0.9,0.5,1.7,1,2.4,1.5c0.7,0.5,1.5,1,2.2,1.5l37.1-0.2c2.7-0.6,4.3-1.9,4.9-4c0.6-2-0.4-3.2-2.9-3.5
		l-34.2,0.1l-3.7-0.8l-1.8-0.4c-0.3-0.2-0.7-0.6-1.3-0.9c-0.6-0.4-1.1-1.1-1.6-2.3l5.4-26C119,235.4,122.8,232.6,128.3,230.5z"/>
	<path d="M254.1,230.6H287l-3.9,18l-3.4-3l-16.1-0.1l-9.4,44.2l1.6,3h-31.4l2.8-3l9.4-44.2h-16.8l-4.2,3.5l4-18.4
		C236.3,230.5,247.8,230.5,254.1,230.6z"/>
	<path d="M292.8,286.5c-0.4-1.5-0.5-2.8-0.3-3.9l10.6-49.6l-1.6-2.7H333l-2.6,2.9l-8.8,41.6c-1.4,6.4,3.6,9.4,14.9,9.1l-2,9.3
		l-20.1-0.2C304,293,296.8,290.8,292.8,286.5z M338.7,292.7l-20.1,0.2l1.9-9.4c11.2,0.4,17.5-2.6,18.8-9l8.8-41.6l-1.3-2.9h31.5
		l-2.7,2.7l-10.6,49.6c-0.2,1.2-0.8,2.5-1.9,3.9C357.4,290.5,349.3,292.7,338.7,292.7z"/>
	<path d="M406.5,230.9h27.2c2.8,11.3,4.9,19.8,6.3,25.5c1.5,5.7,2.3,8.8,2.4,9.2c14.3-20.2,21.1-31.7,20.3-34.7H490
		c-0.6,1.7-2.1,4-4.3,6.7l-1.6,2.5c-8.5,12.6-14.9,22.2-19.2,28.8c-4.4,6.6-6.7,10.2-7,10.9l-1,1.1l-0.6,1.4l-4.2,8.8l-0.3,1.1
		h-30.4c0.5-2.1,0.5-4.2,0.1-6.1l-8.6-38.9l-1-4.2l-0.7-2.1l-4-8.6L406.5,230.9z"/>
	<path d="M630.4,212.2h18.9c-0.3,0.3-0.7,0.6-1.1,0.9c-0.4,0.3-0.8,0.6-1.3,0.9l-6.1,5.6l-40,64.9l-29,8.6h-0.5
		c0.2-0.9,0.2-1.7,0.2-2.2l0.1-0.6l2.1-47.1l-0.4-0.3l-30.2,52.6l-31.1,10l-1.3,0.2c-0.1-0.4,0.4-5.8,1.4-16.1
		c1-10.3,2.5-25.6,4.4-45.9l0.1-1.2l-0.1-0.6l0.3-1.3l0.1-1.9l-0.5-2.9c-0.3-0.9-0.6-1.6-0.8-2.3c-0.2-0.7-0.6-1.3-1-1.8
		c-0.1-0.2-0.2-0.5-0.2-0.6h37.4c-0.9,0.7-1.7,1.7-2.4,3l-0.3,0.4l-8.9,35.7l0.1,0.6l27-39l0.3-0.5H603l-4.1,32.8l29.9-44.2l0.9-1.8
		C630.3,216.4,630.6,214.5,630.4,212.2z"/>
	<path d="M648.7,230.8h27.4l10.9,17.6l1.2,1.8c0.4-0.7,6.2-6.9,17.3-18.4l0.2-1H733l-32,31.5l1.7,2.3l19,27.8h-27.3l-12.1-19.3
		c-1.2,1.4-6.5,6.8-15.9,16.2l-1.6,3.1h-27.4l31.1-30.9c-0.4-2-6.1-11.3-17.3-28.2L648.7,230.8z"/>
	<path d="M763.3,230.8h30.4l-6.4,30.5c0.1,0.9,0.8,1.7,2,2.3h13.2l2.9-1.2c0.6-1.3,1-2.5,1.3-3.7l5.9-28.1l32-0.2
		c-1.8,1.8-3.2,3.8-4.1,6.1l-0.7,1.8l-9.3,43.3c-0.9,5.8-5.8,9.5-14.5,11h-58.8v-12.1l0.2-0.9l5.6,1.8c1.7,0.2,3.5,0.4,5.6,0.5
		c2.1,0.1,4.4,0.1,7.1,0l23.1-0.1c2.8,0,4.2-0.8,4.2-2.4l2.3-10.1c-0.1,1.1-1.7,1.8-4.9,2l-32.4,0.2l-1.3-0.3
		c-2-0.6-3.7-1.6-5.3-2.9c-0.7-1-1.1-2.2-1.4-3.5l-0.1-1.4l6.1-28.2C766.2,233.9,765.3,232.4,763.3,230.8z"/>
	<path d="M873.8,230.5h76.5l-12.9,13.2l-33.9,35h32.8l3.3-2.6l-3.5,16.6h-76.3l49.6-47.3h-36l-3.3,2.5L873.8,230.5z"/>
</g>
</svg>
